# xmcd
#
# Track frame offsets:
#	150
#	16282
#	34558
#	52082
#	69550
#	85597
#	104542
#	123510
#	141756
#	157262
#	174732
#	194941
#	214965
#	234494
#	252224
#	270701
#	293353
#	309787
#
# Disc length: 4411 seconds
#
# Revision: 2
# Processed by: cddbd v1.4PL0 Copyright (c) Steve Scherf et al.
# Submitted via: EZCDDA 4.3.2
#
DISCID=08113912
DTITLE=Валерий Меладзе - Лучшее песни
DYEAR=1900
DGENRE=
TTITLE0=Посредине лета
TTITLE1=Самба белого мотылька
TTITLE2=Черная кошка
TTITLE3=А все могло быть иначе
TTITLE4=Красавицы могут все
TTITLE5=Когда заходить солнце
TTITLE6=Актриса
TTITLE7=Как ты красива сегодня
TTITLE8=Девушки из высшего общества
TTITLE9=Песня о студенте
TTITLE10=Ты пришла из ниоткуда
TTITLE11=Река времени
TTITLE12=Не тревожь мне душу скрипка
TTITLE13=Сэра
TTITLE14=Лимбо
TTITLE15=Ночь накануне Рождества
TTITLE16=Холодное сердце
TTITLE17=Колокол далей небесных
EXTD=
EXTT0=
EXTT1=
EXTT2=
EXTT3=
EXTT4=
EXTT5=
EXTT6=
EXTT7=
EXTT8=
EXTT9=
EXTT10=
EXTT11=
EXTT12=
EXTT13=
EXTT14=
EXTT15=
EXTT16=
EXTT17=
PLAYORDER=
